<svg width="40" height="40" viewBox="0 0 40 40" fill="none" xmlns="http://www.w3.org/2000/svg">
<path d="M39.0476 29.5238V12.3809C39.0476 12.3809 21.7143 24.4761 20.0286 25.1038C18.3714 24.5047 0.952393 12.3809 0.952393 12.3809V29.5238C0.952393 31.9047 1.45715 32.3809 3.80954 32.3809H36.1905C38.5991 32.3809 39.0476 31.9628 39.0476 29.5238ZM39.02 9.01996C39.02 7.28567 38.5143 6.66663 36.1905 6.66663H3.80954C1.41906 6.66663 0.952393 7.40948 0.952393 9.14282L0.980964 9.40948C0.980964 9.40948 18.1895 21.2571 20.0286 21.9047C21.9714 21.1523 39.0476 9.14282 39.0476 9.14282L39.02 9.01996Z" fill="#f0f8ff"/>
</svg>
