<svg width="40" height="40" viewBox="0 0 40 40" fill="f0f8ff" xmlns="http://www.w3.org/2000/svg">
<path d="M38.949 6.89335C38.439 5.5796 37.7589 4.46677 36.6461 3.35394C35.5332 2.24111 34.4204 1.56105 33.1066 1.051C31.8393 0.556412 30.3709 0.216381 28.2535 0.123646C26.1206 0.03091 25.4405 0 20 0C14.5595 0 13.8794 0.0154541 11.7465 0.123646C9.6136 0.216381 8.16074 0.556412 6.89335 1.051C5.5796 1.56105 4.46677 2.24111 3.35394 3.35394C2.24111 4.46677 1.56105 5.5796 1.05101 6.89335C0.556415 8.16074 0.216384 9.62906 0.123648 11.7465C0.0309124 13.8794 0 14.5595 0 20C0 25.4405 0.0154564 26.1206 0.123648 28.2535C0.216384 30.3864 0.556415 31.8393 1.05101 33.1066C1.56105 34.4204 2.24111 35.5332 3.35394 36.6461C4.46677 37.7589 5.5796 38.4389 6.89335 38.949C8.16074 39.4436 9.62906 39.7836 11.7465 39.8764C13.8794 39.9691 14.5595 40 20 40C25.4405 40 26.1206 39.9845 28.2535 39.8764C30.3864 39.7836 31.8393 39.4436 33.1066 38.949C34.4204 38.4389 35.5332 37.7589 36.6461 36.6461C37.7589 35.5332 38.439 34.4204 38.949 33.1066C39.4436 31.8393 39.7836 30.3709 39.8764 28.2535C39.9691 26.1206 40 25.4405 40 20C40 14.5595 39.9845 13.8794 39.8764 11.7465C39.7836 9.6136 39.4436 8.16074 38.949 6.89335ZM36.2751 28.0835C36.1824 30.0309 35.8578 31.0974 35.5796 31.7929C35.2241 32.7202 34.7759 33.4003 34.0804 34.0958C33.3849 34.7913 32.7202 35.2241 31.7774 35.5951C31.0665 35.8733 30.0155 36.1978 28.068 36.2906C25.9505 36.3833 25.3323 36.4142 19.9845 36.4142C14.6368 36.4142 14.0031 36.3988 11.9011 36.2906C9.95363 36.1978 8.88717 35.8733 8.19165 35.5951C7.2643 35.2396 6.58424 34.7913 5.88872 34.0958C5.1932 33.4003 4.76043 32.7357 4.38949 31.7929C4.11128 31.0819 3.78671 30.0309 3.69397 28.0835C3.60124 25.966 3.57033 25.3323 3.57033 20C3.57033 14.6677 3.58578 14.0185 3.69397 11.9165C3.78671 9.96909 4.11128 8.90263 4.38949 8.20711C4.74498 7.27975 5.1932 6.59969 5.88872 5.90417C6.58424 5.20865 7.24884 4.77589 8.19165 4.40495C8.90263 4.12674 9.95363 3.80216 11.9011 3.70943C14.0185 3.61669 14.6522 3.58578 19.9845 3.58578C25.3168 3.58578 25.966 3.60124 28.068 3.70943C30.0155 3.80216 31.0819 4.12674 31.7774 4.40495C32.7048 4.76043 33.3849 5.20865 34.0804 5.90417C34.7759 6.59969 35.2087 7.2643 35.5796 8.20711C35.8578 8.91808 36.1824 9.96909 36.2751 11.9165C36.3679 14.034 36.3988 14.6677 36.3988 20C36.3988 25.3323 36.3679 25.9815 36.2751 28.0835Z" fill="url(#paint0_radial_13_16)"/>
<path d="M19.9846 9.7218C14.3122 9.7218 9.70636 14.3277 9.70636 20C9.70636 25.6723 14.3122 30.2782 19.9846 30.2782C25.6569 30.2782 30.2628 25.6723 30.2628 20C30.2628 14.3277 25.6569 9.7218 19.9846 9.7218ZM19.9846 26.677C16.3061 26.677 13.3076 23.694 13.3076 20C13.3076 16.3215 16.2906 13.323 19.9846 13.323C23.6785 13.323 26.6615 16.306 26.6615 20C26.6615 23.6785 23.6631 26.677 19.9846 26.677Z" fill="url(#paint1_radial_13_16)"/>
<path d="M30.6646 11.7157C31.9877 11.7157 33.0603 10.6431 33.0603 9.31999C33.0603 7.9969 31.9877 6.92432 30.6646 6.92432C29.3415 6.92432 28.2689 7.9969 28.2689 9.31999C28.2689 10.6431 29.3415 11.7157 30.6646 11.7157Z" fill="url(#paint2_radial_13_16)"/>
<defs>
<radialGradient id="paint0_radial_13_16" cx="0" cy="0" r="1" gradientUnits="userSpaceOnUse" gradientTransform="translate(11.6034 39.9164) scale(40.3568)">
<stop stop-color="#f0f8ff"/>
<stop offset="0.2463" stop-color="#f0f8ff"/>
<stop offset="0.3793" stop-color="#f0f8ff"/>
<stop offset="0.5394" stop-color="#f0f8ff"/>
<stop offset="0.6995" stop-color="#f0f8ff"/>
<stop offset="0.9122" stop-color="#f0f8ff"/>
<stop offset="0.9852" stop-color="#f0f8ff"/>
</radialGradient>
<radialGradient id="paint1_radial_13_16" cx="0" cy="0" r="1" gradientUnits="userSpaceOnUse" gradientTransform="translate(15.6807 30.2271) scale(20.7238)">
<stop stop-color="#f0f8ff"/>
<stop offset="0.2463" stop-color="#f0f8ff"/>
<stop offset="0.3793" stop-color="#f0f8ff"/>
<stop offset="0.607" stop-color="#f0f8ff"/>
<stop offset="0.8346" stop-color="#f0f8ff"/>
<stop offset="0.9577" stop-color="#f0f8ff"/>
<stop offset="1" stop-color="#f0f8ff"/>
</radialGradient>
<radialGradient id="paint2_radial_13_16" cx="0" cy="0" r="1" gradientUnits="userSpaceOnUse" gradientTransform="translate(29.6634 11.7049) scale(4.84281)">
<stop stop-color="#f0f8ff"/>
<stop offset="1" stop-color="#f0f8ff"/>
</radialGradient>
</defs>
</svg>
