<svg width="40" height="40" viewBox="0 0 40 40" fill="f0f8ff" xmlns="http://www.w3.org/2000/svg">
<path d="M32.9425 13.0306C32.9425 5.11563 27.865 0 20 0C12.135 0 7.0575 5.11563 7.0575 13.0306C7.0575 19.6281 17.2519 32.8725 18.4169 34.3544L19.8406 36.1844C13.8769 36.2 9.0675 37.0469 9.0675 38.0912C9.0675 39.145 13.965 39.9994 20.0062 39.9994C26.0475 39.9994 30.945 39.145 30.945 38.0912C30.945 37.0462 26.13 36.1988 20.1606 36.1844L21.5931 34.3544C22.7475 32.8631 32.9425 19.6188 32.9425 13.0306ZM15.8087 13.0219C15.8087 10.7694 17.685 8.94313 20 8.94313C22.315 8.94313 24.1912 10.7694 24.1912 13.0219C24.1912 15.2744 22.315 17.1006 20 17.1006C17.685 17.1006 15.8087 15.2744 15.8087 13.0219Z" fill="#f0f8ff"/>
</svg>
