<svg width="40" height="40" viewBox="0 0 40 40" fill="f0f8ff" xmlns="http://www.w3.org/2000/svg">
<path d="M39.9992 18.7907C39.95 23.951 38.6123 27.9881 35.8303 31.4962C32.8431 35.2647 28.9532 37.6577 24.1934 38.6263C20.5169 39.3669 16.9389 39.0414 13.4265 37.7798C12.6469 37.4949 11.8836 37.1612 11.1533 36.7623C10.9317 36.6403 10.7429 36.624 10.4967 36.7054C7.1731 37.7716 3.84125 38.8297 0.509399 39.8797C0.361681 39.9286 0.164724 40.0669 0.049833 39.9611C-0.0814715 39.8309 0.0826591 39.6355 0.131898 39.4809C0.796627 37.5193 1.46136 35.5496 2.13429 33.588C2.54462 32.3915 2.93853 31.2032 3.36527 30.0148C3.48016 29.7055 3.43913 29.4695 3.26679 29.1846C2.42152 27.7521 1.79782 26.2219 1.35467 24.6184C0.525812 21.6069 0.43554 18.5628 1.08386 15.5187C1.78962 12.1978 3.26679 9.23507 5.54 6.67932C8.28919 3.58637 11.6785 1.54339 15.7079 0.558528C18.2765 -0.0682015 20.8698 -0.165874 23.4795 0.257372C26.8934 0.810848 29.9708 2.15384 32.6544 4.31891C35.4446 6.57351 37.4798 9.37344 38.76 12.735C39.4658 14.5501 40.0238 17.5209 39.9992 18.7907ZM5.05582 35.0449C7.09103 34.3938 9.03598 33.7752 10.9645 33.1485C11.2189 33.0671 11.4241 33.0834 11.6457 33.2299C12.3842 33.7182 13.1803 34.1089 14.0009 34.4508C16.6681 35.574 19.4419 35.981 22.3059 35.6147C25.8183 35.167 28.904 33.7671 31.4973 31.3334C34.7635 28.2649 36.5114 24.5045 36.6674 20.0604C36.8151 15.7059 35.4036 11.8804 32.4574 8.63276C29.659 5.54795 26.1466 3.78985 22.0023 3.35032C18.3996 2.96778 15.0267 3.74101 11.9083 5.59678C9.24115 7.1921 7.19772 9.3653 5.77799 12.1083C4.21054 15.128 3.67712 18.3349 4.12848 21.6964C4.46495 24.2359 5.38408 26.5719 6.86125 28.6718C7.02538 28.9079 7.07462 29.1032 6.97614 29.38C6.6725 30.2102 6.40169 31.0485 6.11446 31.8787C5.76978 32.9043 5.43332 33.9299 5.05582 35.0449Z" fill="#f0f8ff"/>
<path d="M10.5049 14.957C10.546 13.0198 11.2353 11.5792 12.5402 10.4315C12.9587 10.0571 13.4757 9.89431 14.0584 9.9757C14.3046 10.0083 14.5508 10.0327 14.797 10.0164C15.2565 9.99198 15.5684 10.2117 15.7243 10.6106C16.2741 12.0268 16.8076 13.4431 17.341 14.8675C17.5215 15.3558 17.2097 15.7384 16.9471 16.0884C16.6434 16.5035 16.2741 16.8697 15.913 17.236C15.5437 17.6104 15.4945 17.822 15.7489 18.2778C17.2343 20.9557 19.3187 23.0149 22.15 24.2847C22.2485 24.3254 22.347 24.3823 22.4454 24.4312C22.8229 24.6021 23.1594 24.5614 23.4466 24.2358C23.9719 23.6254 24.5463 23.0638 25.0305 22.4208C25.3505 21.9975 25.5721 21.9243 26.0563 22.1359C27.5007 22.7545 28.8547 23.5359 30.2334 24.2928C30.4878 24.4312 30.5781 24.6428 30.5699 24.9358C30.496 27.3369 29.1091 28.5904 26.6718 29.1439C25.4901 29.4125 24.3986 29.1194 23.3153 28.7288C21.0421 27.9148 18.851 26.9544 17.0127 25.3428C15.552 24.0568 14.2635 22.6242 13.1721 21.0208C12.335 19.7836 11.4651 18.5709 10.9809 17.1302C10.7019 16.3651 10.4967 15.5837 10.5049 14.957Z" fill="#f0f8ff"/>
</svg>
